<?xml version="1.0" encoding="UTF-8"?>
<svg xmlns="http://www.w3.org/2000/svg" height="512px" viewBox="-56 0 480 480" width="512px" class=""><g><path d="m344 32h-128c0-17.671875-14.328125-32-32-32s-32 14.328125-32 32h-128c-13.253906 0-24 10.746094-24 24v400c0 13.253906 10.746094 24 24 24h320c13.253906 0 24-10.746094 24-24v-400c0-13.253906-10.746094-24-24-24zm-160-16c8.835938 0 16 7.164062 16 16h-32c0-8.835938 7.164062-16 16-16zm-48 32h96v40h-96zm-8 56h112c4.417969 0 8-3.582031 8-8v-16h72v352h-272v-352h72v16c0 4.417969 3.582031 8 8 8zm224 352c0 4.417969-3.582031 8-8 8h-320c-4.417969 0-8-3.582031-8-8v-400c0-4.417969 3.582031-8 8-8h96v16h-80c-4.417969 0-8 3.582031-8 8v368c0 4.417969 3.582031 8 8 8h288c4.417969 0 8-3.582031 8-8v-368c0-4.417969-3.582031-8-8-8h-80v-16h96c4.417969 0 8 3.582031 8 8zm0 0" data-original="#000000" class="active-path" data-old_color="##25415" fill="#254151"/><path d="m80 160v144c0 4.417969 3.582031 8 8 8h192c4.417969 0 8-3.582031 8-8v-144c0-4.417969-3.582031-8-8-8h-192c-4.417969 0-8 3.582031-8 8zm96 136h-32v-16h32zm0-32h-32v-16h32zm0-32h-32v-16h32zm48 64h-32v-16h32zm0-32h-32v-16h32zm0-32h-32v-16h32zm48 64h-32v-16h32zm0-32h-32v-16h32zm0-32h-32v-16h32zm-176-64h176v32h-176zm0 48h32v16h-32zm0 32h32v16h-32zm0 32h32v16h-32zm0 0" data-original="#000000" class="active-path" data-old_color="##25415" fill="#254151"/><path d="m176 336h16v16h-16zm0 0" data-original="#000000" class="active-path" data-old_color="##25415" fill="#254151"/><path d="m144 336h16v16h-16zm0 0" data-original="#000000" class="active-path" data-old_color="##25415" fill="#254151"/><path d="m208 336h16v16h-16zm0 0" data-original="#000000" class="active-path" data-old_color="##25415" fill="#254151"/><path d="m240 336h16v16h-16zm0 0" data-original="#000000" class="active-path" data-old_color="##25415" fill="#254151"/><path d="m112 336h16v16h-16zm0 0" data-original="#000000" class="active-path" data-old_color="##25415" fill="#254151"/><path d="m112 368h144v16h-144zm0 0" data-original="#000000" class="active-path" data-old_color="##25415" fill="#254151"/></g> </svg>